<svg width="236" height="40" xmlns="http://www.w3.org/2000/svg" viewBox="500 0 500 256" style="enable-background:new 0 0 256 256" xml:space="preserve"><style></style><g id="Layer_1"><path d="m209.867 61.523-14.545 14.401c-15.873-20.509-40.19-32.963-66.915-33.017-44.03-.088-80.328 33.088-84.983 75.763l10.983.055c3.92.019 6.347 4.271 4.366 7.651L36.96 163.731c-1.972 3.389-6.87 3.365-8.817-.044L6.702 126.118c-1.948-3.4.522-7.627 4.442-7.607l11.823.059c4.754-53.794 50.007-96.294 105.44-96.018 32.763.162 62.116 15.158 81.46 38.971z" style="fill:#fc5d3d"/><path d="M32.892 121.949a2.499 2.499 0 0 1-2.406-2.718c4.405-49.852 46.114-89.294 97.921-89.128 26.152.129 50.833 10.451 69.224 29.064a2.5 2.5 0 1 1-3.556 3.514c-17.451-17.661-40.841-27.455-65.668-27.578-48.618-.166-88.78 37.496-92.94 84.567a2.501 2.501 0 0 1-2.575 2.279z" style="fill:#ffcbc2"/><path d="m46.136 194.477 14.545-14.401c15.461 19.978 39.549 32.871 66.814 33.016 44.131.201 80.421-33.015 85.084-75.763l-10.983-.055c-3.92-.019-6.347-4.271-4.366-7.651l21.813-37.354c1.972-3.389 6.87-3.365 8.817.044l21.441 37.569c1.948 3.4-.522 7.627-4.442 7.607l-11.823-.059c-4.729 53.52-49.694 96.296-105.541 96.018-32.866-.163-62.169-15.348-81.359-38.971z" style="fill:#13bf6d"/><path d="M127.495 225.897c-26.152-.129-50.732-10.451-69.123-29.064a2.5 2.5 0 1 1 3.557-3.514c17.451 17.661 40.74 27.455 65.567 27.578 48.617.166 88.88-37.496 93.041-84.567a2.514 2.514 0 0 1 2.71-2.271 2.5 2.5 0 0 1 2.271 2.71c-4.388 49.617-46.007 89.296-98.023 89.128z" style="fill:#76ffba"/><path d="M166.26 135.187c4.589-19.967-10.538-38.856-30.831-38.957-15.376-.076-28.257 10.771-31.289 25.258-13.03-5.58-27.627 3.95-27.698 18.183-.055 10.979 8.801 19.923 19.78 19.977l70.697.352c6.862.034 12.452-5.501 12.486-12.362.034-7.049-5.839-12.87-13.145-12.451z" style="fill:#72c1e8"/><path d="M155.475 133.578a2.5 2.5 0 0 1-2.1-2.844c.072-.485.127-.978.16-1.464.095-1.378 1.303-2.41 2.666-2.322a2.5 2.5 0 0 1 2.322 2.666c-.043.62-.111 1.247-.205 1.864a2.499 2.499 0 0 1-2.843 2.1zm-4.218-14.457c-3.224-5.76-9.314-9.358-15.896-9.391a2.5 2.5 0 0 1 .013-5h.013c8.379.042 16.132 4.62 20.233 11.949a2.5 2.5 0 0 1-4.363 2.442z" style="fill:#c5e5ff"/><path d="m39.121 164.99 21.81-37.351c2.973-5.041-.682-11.368-6.51-11.41l-8.16-.05c5.971-41.758 43.352-71.461 82.146-70.779 14.47.254 27.733 3.498 40.664 10.909 1.16.66 2.75.221 3.41-.93.69-1.19.271-2.73-.92-3.41-13.156-7.541-27.391-11.397-43.154-11.57-43.223-.476-82.51 32.416-87.466 78-.17 1.484 1.014 2.771 2.47 2.771l10.98.06c2.067 0 3.217 2.249 2.22 3.88l-21.81 37.36a2.588 2.588 0 0 1-4.49-.02l-21.44-37.57a2.585 2.585 0 0 1 2.27-3.87l11.83.06c1.28 0 2.37-1 2.49-2.279 4.564-51.713 48.523-93.74 102.946-93.74 30.082 0 59.606 13.529 79.514 38.05.84 1.03 2.49 1.2 3.52.36 1.068-.862 1.237-2.447.37-3.5v-.01a108.031 108.031 0 0 0-83.404-39.9c-57.588 0-101.893 43.146-107.706 96.01l-9.55-.05c-5.864.027-9.51 6.275-6.62 11.35l21.44 37.561c2.876 5.084 10.206 5.128 13.15.068z"/><path d="M188.051 64.21c-.97-.92-2.61-.87-3.53.1a2.5 2.5 0 0 0 .11 3.54c3.14 2.96 6.07 6.19 8.71 9.601a2.505 2.505 0 0 0 3.51.449 2.489 2.489 0 0 0 .45-3.5 88.259 88.259 0 0 0-9.25-10.19zM177.191 61.62c1.124.834 2.681.564 3.49-.521.867-1.169.543-2.695-.51-3.49-1.08-.8-2.71-.55-3.5.511a2.49 2.49 0 0 0 .52 3.5zM61.741 206.81c-4.97-4.189-9.57-8.87-13.66-13.91-.84-1.029-2.49-1.199-3.52-.359-1.07.859-1.23 2.439-.37 3.51 4.3 5.29 9.12 10.19 14.33 14.58a2.494 2.494 0 0 0 3.52-.3 2.496 2.496 0 0 0-.3-3.521zM70.131 216.21c.78-1.13.49-2.69-.64-3.47-1.1-.761-2.72-.471-3.48.63-.78 1.13-.5 2.689.64 3.479a2.506 2.506 0 0 0 3.48-.639zM230.032 91.069c-2.885-5.077-10.236-5.118-13.15-.05l-21.811 37.34c-2.973 5.048.697 11.369 6.511 11.41l8.16.04c-5.676 39.698-40.203 70.78-82.247 70.78-25.61-.14-49.174-11.82-64.834-32.04-.82-1.06-2.45-1.27-3.51-.45-1.141.883-1.255 2.47-.45 3.51 15.865 20.49 40.661 33.817 68.794 33.98 46.366 0 82.826-34.582 87.566-77.99.169-1.482-1.011-2.819-2.47-2.819h-10.98c-2.016-.014-3.226-2.19-2.229-3.891l21.82-37.359c1.031-1.75 3.48-1.704 4.489.02l21.44 37.57c.984 1.758-.274 3.66-2.271 3.66h-11.83c-1.28 0-2.381 1.149-2.49 2.43-4.547 51.501-48.3 93.74-103.047 93.74-17.42-.091-34.644-4.601-49.723-13.051-1.17-.649-2.76-.199-3.4.96a2.492 2.492 0 0 0 .95 3.4c15.332 8.59 33.129 13.586 52.174 13.69 57.403 0 101.986-43.08 107.806-96.011l9.54.051c5.86-.03 9.519-6.273 6.63-11.351l-21.438-37.569z"/><path d="M135.442 93.73c-15.828 0-28.878 10.497-33.052 24.492-14.159-4.002-28.373 6.636-28.447 21.436-.062 12.369 9.898 22.428 22.268 22.49l70.695.352h.076c8.194-.001 14.882-6.646 14.923-14.85.036-7.301-5.294-13.728-12.666-14.821 2.907-20.492-12.947-38.995-33.797-39.099zm41.463 53.895c-.027 5.456-4.474 9.875-9.924 9.875h-.05l-70.696-.352c-9.583-.048-17.34-7.883-17.292-17.465.061-12.397 12.803-20.785 24.213-15.897a2.5 2.5 0 0 0 3.431-1.786c2.769-13.232 14.543-23.27 28.83-23.27 18.715.092 32.633 17.51 28.407 35.897-.381 1.663.983 3.174 2.58 3.056 5.793-.347 10.529 4.278 10.501 9.942z"/></g></svg>